<?xml version="1.0" encoding="us-ascii" standalone="no"?><svg xmlns="http://www.w3.org/2000/svg" xmlns:xlink="http://www.w3.org/1999/xlink" contentStyleType="text/css" height="923px" preserveAspectRatio="none" style="width:1762px;height:923px;background:#FFFFFF;" version="1.1" viewBox="0 0 1762 923" width="1762px" zoomAndPan="magnify"><defs/><g><text fill="#000000" font-family="sans-serif" font-size="14" font-weight="bold" lengthAdjust="spacing" textLength="362" x="699.25" y="27.9951">Sequence Diagram (SD) - US013 - Delete user</text><rect fill="#FFFFFF" height="696.2813" style="stroke:#181818;stroke-width:1.0;" width="10" x="33" y="128.5938"/><rect fill="#FFFFFF" height="675.1484" style="stroke:#181818;stroke-width:1.0;" width="10" x="215" y="149.7266"/><rect fill="#FFFFFF" height="616.8828" style="stroke:#181818;stroke-width:1.0;" width="10" x="461.5" y="178.8594"/><rect fill="#CCCCCC" height="543.6172" style="stroke:#181818;stroke-width:1.0;" width="10" x="466.5" y="215.9922"/><rect fill="#FFFFFF" height="29.1328" style="stroke:#181818;stroke-width:1.0;" width="10" x="724.5" y="320.5547"/><rect fill="#FFFFFF" height="87.3984" style="stroke:#181818;stroke-width:1.0;" width="10" x="904.5" y="291.4219"/><rect fill="#FFFFFF" height="275.2266" style="stroke:#181818;stroke-width:1.0;" width="10" x="904.5" y="449.25"/><rect fill="#FFFFFF" height="70.4297" style="stroke:#181818;stroke-width:1.0;" width="10" x="1101.5" y="378.8203"/><rect fill="#FFFFFF" height="29.1328" style="stroke:#181818;stroke-width:1.0;" width="10" x="1101.5" y="695.3438"/><rect fill="#FFFFFF" height="30" style="stroke:#181818;stroke-width:1.0;" width="10" x="1231.5" y="636.2109"/><rect fill="#FFFFFF" height="70.4297" style="stroke:#181818;stroke-width:1.0;" width="10" x="1338.5" y="478.3828"/><rect fill="#FFFFFF" height="29.1328" style="stroke:#181818;stroke-width:1.0;" width="10" x="1664.5" y="577.9453"/><line style="stroke:#181818;stroke-width:0.5;stroke-dasharray:5.0,5.0;" x1="38" x2="38" y1="118.5938" y2="842.875"/><line style="stroke:#181818;stroke-width:0.5;stroke-dasharray:5.0,5.0;" x1="220" x2="220" y1="118.5938" y2="842.875"/><line style="stroke:#181818;stroke-width:0.5;stroke-dasharray:5.0,5.0;" x1="466" x2="466" y1="118.5938" y2="842.875"/><line style="stroke:#181818;stroke-width:0.5;stroke-dasharray:5.0,5.0;" x1="729" x2="729" y1="259.6406" y2="842.875"/><line style="stroke:#181818;stroke-width:0.5;stroke-dasharray:5.0,5.0;" x1="909" x2="909" y1="118.5938" y2="842.875"/><line style="stroke:#181818;stroke-width:0.5;stroke-dasharray:5.0,5.0;" x1="1106.5" x2="1106.5" y1="118.5938" y2="842.875"/><line style="stroke:#181818;stroke-width:0.5;stroke-dasharray:5.0,5.0;" x1="1236.5" x2="1236.5" y1="417.4688" y2="842.875"/><line style="stroke:#181818;stroke-width:0.5;stroke-dasharray:5.0,5.0;" x1="1343.5" x2="1343.5" y1="118.5938" y2="842.875"/><line style="stroke:#181818;stroke-width:0.5;stroke-dasharray:5.0,5.0;" x1="1501.5" x2="1501.5" y1="517.0313" y2="842.875"/><line style="stroke:#181818;stroke-width:0.5;stroke-dasharray:5.0,5.0;" x1="1669.5" x2="1669.5" y1="118.5938" y2="842.875"/><text fill="#000000" font-family="sans-serif" font-size="14" lengthAdjust="spacing" textLength="60" x="5" y="115.292">Member</text><ellipse cx="38" cy="50.7969" fill="#E3E3E3" rx="8" ry="8" style="stroke:#181818;stroke-width:0.5;"/><path d="M38,58.7969 L38,85.7969 M25,66.7969 L51,66.7969 M38,85.7969 L25,100.7969 M38,85.7969 L51,100.7969 " fill="none" style="stroke:#181818;stroke-width:0.5;"/><text fill="#000000" font-family="sans-serif" font-size="14" lengthAdjust="spacing" textLength="60" x="5" y="854.8701">Member</text><ellipse cx="38" cy="866.6719" fill="#E3E3E3" rx="8" ry="8" style="stroke:#181818;stroke-width:0.5;"/><path d="M38,874.6719 L38,901.6719 M25,882.6719 L51,882.6719 M38,901.6719 L25,916.6719 M38,901.6719 L51,916.6719 " fill="none" style="stroke:#181818;stroke-width:0.5;"/><rect fill="#E3E3E3" height="30.2969" rx="2.5" ry="2.5" style="stroke:#181818;stroke-width:0.5;" width="150" x="145" y="87.2969"/><text fill="#000000" font-family="sans-serif" font-size="14" lengthAdjust="spacing" textLength="136" x="152" y="107.292">postRouter:Router</text><rect fill="#E3E3E3" height="30.2969" rx="2.5" ry="2.5" style="stroke:#181818;stroke-width:0.5;" width="150" x="145" y="841.875"/><text fill="#000000" font-family="sans-serif" font-size="14" lengthAdjust="spacing" textLength="136" x="152" y="861.8701">postRouter:Router</text><rect fill="#E3E3E3" height="30.2969" rx="2.5" ry="2.5" style="stroke:#181818;stroke-width:0.5;" width="323" x="305" y="87.2969"/><text fill="#000000" font-family="sans-serif" font-size="14" lengthAdjust="spacing" textLength="309" x="312" y="107.292">deleteUserController:DeleteUserController</text><rect fill="#E3E3E3" height="30.2969" rx="2.5" ry="2.5" style="stroke:#181818;stroke-width:0.5;" width="323" x="305" y="841.875"/><text fill="#000000" font-family="sans-serif" font-size="14" lengthAdjust="spacing" textLength="309" x="312" y="861.8701">deleteUserController:DeleteUserController</text><rect fill="#E3E3E3" height="30.2969" rx="2.5" ry="2.5" style="stroke:#181818;stroke-width:0.5;" width="183" x="638" y="841.875"/><text fill="#000000" font-family="sans-serif" font-size="14" lengthAdjust="spacing" textLength="169" x="645" y="861.8701">dto:DeleteUserPostDto</text><rect fill="#E3E3E3" height="30.2969" rx="2.5" ry="2.5" style="stroke:#181818;stroke-width:0.5;" width="157" x="831" y="87.2969"/><text fill="#000000" font-family="sans-serif" font-size="14" lengthAdjust="spacing" textLength="143" x="838" y="107.292">useCase:DeleteUser</text><rect fill="#E3E3E3" height="30.2969" rx="2.5" ry="2.5" style="stroke:#181818;stroke-width:0.5;" width="157" x="831" y="841.875"/><text fill="#000000" font-family="sans-serif" font-size="14" lengthAdjust="spacing" textLength="143" x="838" y="861.8701">useCase:DeleteUser</text><rect fill="#E3E3E3" height="30.2969" rx="2.5" ry="2.5" style="stroke:#181818;stroke-width:0.5;" width="160" x="1026.5" y="87.2969"/><text fill="#000000" font-family="sans-serif" font-size="14" lengthAdjust="spacing" textLength="146" x="1033.5" y="107.292">userRepo:IUserRepo</text><rect fill="#E3E3E3" height="30.2969" rx="2.5" ry="2.5" style="stroke:#181818;stroke-width:0.5;" width="160" x="1026.5" y="841.875"/><text fill="#000000" font-family="sans-serif" font-size="14" lengthAdjust="spacing" textLength="146" x="1033.5" y="861.8701">userRepo:IUserRepo</text><rect fill="#E3E3E3" height="30.2969" rx="2.5" ry="2.5" style="stroke:#181818;stroke-width:0.5;" width="80" x="1196.5" y="841.875"/><text fill="#000000" font-family="sans-serif" font-size="14" lengthAdjust="spacing" textLength="66" x="1203.5" y="861.8701">user:User</text><rect fill="#E3E3E3" height="30.2969" rx="2.5" ry="2.5" style="stroke:#181818;stroke-width:0.5;" width="114" x="1286.5" y="87.2969"/><text fill="#000000" font-family="sans-serif" font-size="14" lengthAdjust="spacing" textLength="100" x="1293.5" y="107.292">memberRepo</text><rect fill="#E3E3E3" height="30.2969" rx="2.5" ry="2.5" style="stroke:#181818;stroke-width:0.5;" width="114" x="1286.5" y="841.875"/><text fill="#000000" font-family="sans-serif" font-size="14" lengthAdjust="spacing" textLength="100" x="1293.5" y="861.8701">memberRepo</text><rect fill="#E3E3E3" height="30.2969" rx="2.5" ry="2.5" style="stroke:#181818;stroke-width:0.5;" width="141" x="1431.5" y="841.875"/><text fill="#000000" font-family="sans-serif" font-size="14" lengthAdjust="spacing" textLength="127" x="1438.5" y="861.8701">member:Member</text><rect fill="#E3E3E3" height="30.2969" rx="2.5" ry="2.5" style="stroke:#181818;stroke-width:0.5;" width="174" x="1582.5" y="87.2969"/><text fill="#000000" font-family="sans-serif" font-size="14" lengthAdjust="spacing" textLength="160" x="1589.5" y="107.292">postRepo:UpvotePost</text><rect fill="#E3E3E3" height="30.2969" rx="2.5" ry="2.5" style="stroke:#181818;stroke-width:0.5;" width="174" x="1582.5" y="841.875"/><text fill="#000000" font-family="sans-serif" font-size="14" lengthAdjust="spacing" textLength="160" x="1589.5" y="861.8701">postRepo:UpvotePost</text><rect fill="#FFFFFF" height="696.2813" style="stroke:#181818;stroke-width:1.0;" width="10" x="33" y="128.5938"/><rect fill="#FFFFFF" height="675.1484" style="stroke:#181818;stroke-width:1.0;" width="10" x="215" y="149.7266"/><rect fill="#FFFFFF" height="616.8828" style="stroke:#181818;stroke-width:1.0;" width="10" x="461.5" y="178.8594"/><rect fill="#CCCCCC" height="543.6172" style="stroke:#181818;stroke-width:1.0;" width="10" x="466.5" y="215.9922"/><rect fill="#FFFFFF" height="29.1328" style="stroke:#181818;stroke-width:1.0;" width="10" x="724.5" y="320.5547"/><rect fill="#FFFFFF" height="87.3984" style="stroke:#181818;stroke-width:1.0;" width="10" x="904.5" y="291.4219"/><rect fill="#FFFFFF" height="275.2266" style="stroke:#181818;stroke-width:1.0;" width="10" x="904.5" y="449.25"/><rect fill="#FFFFFF" height="70.4297" style="stroke:#181818;stroke-width:1.0;" width="10" x="1101.5" y="378.8203"/><rect fill="#FFFFFF" height="29.1328" style="stroke:#181818;stroke-width:1.0;" width="10" x="1101.5" y="695.3438"/><rect fill="#FFFFFF" height="30" style="stroke:#181818;stroke-width:1.0;" width="10" x="1231.5" y="636.2109"/><rect fill="#FFFFFF" height="70.4297" style="stroke:#181818;stroke-width:1.0;" width="10" x="1338.5" y="478.3828"/><rect fill="#FFFFFF" height="29.1328" style="stroke:#181818;stroke-width:1.0;" width="10" x="1664.5" y="577.9453"/><polygon fill="#181818" points="203,145.7266,213,149.7266,203,153.7266,207,149.7266" style="stroke:#181818;stroke-width:1.0;"/><line style="stroke:#181818;stroke-width:1.0;" x1="43" x2="209" y1="149.7266" y2="149.7266"/><text fill="#000000" font-family="sans-serif" font-size="13" font-weight="bold" lengthAdjust="spacing" textLength="9" x="50" y="144.6606">1</text><text fill="#000000" font-family="sans-serif" font-size="13" lengthAdjust="spacing" textLength="140" x="63" y="144.6606">DELETE /posts/:userId</text><polygon fill="#181818" points="449.5,174.8594,459.5,178.8594,449.5,182.8594,453.5,178.8594" style="stroke:#181818;stroke-width:1.0;"/><line style="stroke:#181818;stroke-width:1.0;" x1="225" x2="455.5" y1="178.8594" y2="178.8594"/><text fill="#000000" font-family="sans-serif" font-size="13" font-weight="bold" lengthAdjust="spacing" textLength="9" x="232" y="173.7935">2</text><text fill="#000000" font-family="sans-serif" font-size="13" lengthAdjust="spacing" textLength="111" x="245" y="173.7935">execute(req, res)</text><line style="stroke:#181818;stroke-width:1.0;" x1="471.5" x2="518.5" y1="202.9922" y2="202.9922"/><line style="stroke:#181818;stroke-width:1.0;" x1="518.5" x2="518.5" y1="202.9922" y2="215.9922"/><line style="stroke:#181818;stroke-width:1.0;" x1="477.5" x2="518.5" y1="215.9922" y2="215.9922"/><polygon fill="#181818" points="487.5,211.9922,477.5,215.9922,487.5,219.9922,483.5,215.9922" style="stroke:#181818;stroke-width:1.0;"/><text fill="#000000" font-family="sans-serif" font-size="13" font-weight="bold" lengthAdjust="spacing" textLength="8" x="483.5" y="197.9263">3</text><text fill="#000000" font-family="sans-serif" font-size="13" lengthAdjust="spacing" textLength="135" x="495.5" y="197.9263">executeImp(req, res)</text><polygon fill="#181818" points="626,246.125,636,250.125,626,254.125,630,250.125" style="stroke:#181818;stroke-width:1.0;"/><line style="stroke:#181818;stroke-width:1.0;" x1="476.5" x2="632" y1="250.125" y2="250.125"/><text fill="#000000" font-family="sans-serif" font-size="13" font-weight="bold" lengthAdjust="spacing" textLength="9" x="483.5" y="245.0591">4</text><text fill="#000000" font-family="sans-serif" font-size="13" lengthAdjust="spacing" textLength="37" x="496.5" y="245.0591">new()</text><rect fill="#E3E3E3" height="30.2969" rx="2.5" ry="2.5" style="stroke:#181818;stroke-width:0.5;" width="183" x="638" y="228.9922"/><text fill="#000000" font-family="sans-serif" font-size="14" lengthAdjust="spacing" textLength="169" x="645" y="248.9873">dto:DeleteUserPostDto</text><polygon fill="#181818" points="892.5,287.4219,902.5,291.4219,892.5,295.4219,896.5,291.4219" style="stroke:#181818;stroke-width:1.0;"/><line style="stroke:#181818;stroke-width:1.0;" x1="476.5" x2="898.5" y1="291.4219" y2="291.4219"/><text fill="#000000" font-family="sans-serif" font-size="13" font-weight="bold" lengthAdjust="spacing" textLength="9" x="483.5" y="286.356">5</text><text fill="#000000" font-family="sans-serif" font-size="13" lengthAdjust="spacing" textLength="83" x="496.5" y="286.356">execute(dto)</text><polygon fill="#181818" points="745.5,316.5547,735.5,320.5547,745.5,324.5547,741.5,320.5547" style="stroke:#181818;stroke-width:1.0;"/><line style="stroke:#181818;stroke-width:1.0;stroke-dasharray:2.0,2.0;" x1="739.5" x2="903.5" y1="320.5547" y2="320.5547"/><text fill="#000000" font-family="sans-serif" font-size="13" font-weight="bold" lengthAdjust="spacing" textLength="9" x="751.5" y="315.4888">6</text><text fill="#000000" font-family="sans-serif" font-size="13" lengthAdjust="spacing" textLength="64" x="764.5" y="315.4888">get userId</text><polygon fill="#181818" points="892.5,345.6875,902.5,349.6875,892.5,353.6875,896.5,349.6875" style="stroke:#181818;stroke-width:1.0;"/><line style="stroke:#181818;stroke-width:1.0;" x1="729.5" x2="898.5" y1="349.6875" y2="349.6875"/><text fill="#000000" font-family="sans-serif" font-size="13" font-weight="bold" lengthAdjust="spacing" textLength="9" x="736.5" y="344.6216">7</text><text fill="#000000" font-family="sans-serif" font-size="13" lengthAdjust="spacing" textLength="70" x="749.5" y="344.6216">give userId</text><polygon fill="#181818" points="1089.5,374.8203,1099.5,378.8203,1089.5,382.8203,1093.5,378.8203" style="stroke:#181818;stroke-width:1.0;"/><line style="stroke:#181818;stroke-width:1.0;" x1="909.5" x2="1095.5" y1="378.8203" y2="378.8203"/><text fill="#000000" font-family="sans-serif" font-size="13" font-weight="bold" lengthAdjust="spacing" textLength="9" x="916.5" y="373.7544">8</text><text fill="#000000" font-family="sans-serif" font-size="13" lengthAdjust="spacing" textLength="155" x="929.5" y="373.7544">getUserByUserId(userId)</text><polygon fill="#181818" points="1184.5,403.9531,1194.5,407.9531,1184.5,411.9531,1188.5,407.9531" style="stroke:#181818;stroke-width:1.0;"/><line style="stroke:#181818;stroke-width:1.0;" x1="1111.5" x2="1190.5" y1="407.9531" y2="407.9531"/><text fill="#000000" font-family="sans-serif" font-size="13" font-weight="bold" lengthAdjust="spacing" textLength="9" x="1118.5" y="402.8872">9</text><text fill="#000000" font-family="sans-serif" font-size="13" lengthAdjust="spacing" textLength="37" x="1131.5" y="402.8872">new()</text><rect fill="#E3E3E3" height="30.2969" rx="2.5" ry="2.5" style="stroke:#181818;stroke-width:0.5;" width="80" x="1196.5" y="386.8203"/><text fill="#000000" font-family="sans-serif" font-size="14" lengthAdjust="spacing" textLength="66" x="1203.5" y="406.8154">user:User</text><polygon fill="#181818" points="925.5,445.25,915.5,449.25,925.5,453.25,921.5,449.25" style="stroke:#181818;stroke-width:1.0;"/><line style="stroke:#181818;stroke-width:1.0;stroke-dasharray:2.0,2.0;" x1="919.5" x2="1105.5" y1="449.25" y2="449.25"/><text fill="#000000" font-family="sans-serif" font-size="13" font-weight="bold" lengthAdjust="spacing" textLength="19" x="931.5" y="444.1841">10</text><text fill="#000000" font-family="sans-serif" font-size="13" lengthAdjust="spacing" textLength="28" x="954.5" y="444.1841">user</text><polygon fill="#181818" points="1326.5,474.3828,1336.5,478.3828,1326.5,482.3828,1330.5,478.3828" style="stroke:#181818;stroke-width:1.0;"/><line style="stroke:#181818;stroke-width:1.0;" x1="914.5" x2="1332.5" y1="478.3828" y2="478.3828"/><text fill="#000000" font-family="sans-serif" font-size="13" font-weight="bold" lengthAdjust="spacing" textLength="18" x="921.5" y="473.3169">11</text><text fill="#000000" font-family="sans-serif" font-size="13" lengthAdjust="spacing" textLength="178" x="943.5" y="473.3169">getMemberByUserId(userId)</text><polygon fill="#181818" points="1419.5,503.5156,1429.5,507.5156,1419.5,511.5156,1423.5,507.5156" style="stroke:#181818;stroke-width:1.0;"/><line style="stroke:#181818;stroke-width:1.0;" x1="1348.5" x2="1425.5" y1="507.5156" y2="507.5156"/><text fill="#000000" font-family="sans-serif" font-size="13" font-weight="bold" lengthAdjust="spacing" textLength="18" x="1355.5" y="502.4497">12</text><text fill="#000000" font-family="sans-serif" font-size="13" lengthAdjust="spacing" textLength="37" x="1377.5" y="502.4497">new()</text><rect fill="#E3E3E3" height="30.2969" rx="2.5" ry="2.5" style="stroke:#181818;stroke-width:0.5;" width="141" x="1431.5" y="486.3828"/><text fill="#000000" font-family="sans-serif" font-size="14" lengthAdjust="spacing" textLength="127" x="1438.5" y="506.3779">member:Member</text><polygon fill="#181818" points="925.5,544.8125,915.5,548.8125,925.5,552.8125,921.5,548.8125" style="stroke:#181818;stroke-width:1.0;"/><line style="stroke:#181818;stroke-width:1.0;stroke-dasharray:2.0,2.0;" x1="919.5" x2="1342.5" y1="548.8125" y2="548.8125"/><text fill="#000000" font-family="sans-serif" font-size="13" font-weight="bold" lengthAdjust="spacing" textLength="17" x="931.5" y="543.7466">13</text><text fill="#000000" font-family="sans-serif" font-size="13" lengthAdjust="spacing" textLength="160" x="952.5" y="543.7466">memberId from member</text><polygon fill="#181818" points="1652.5,573.9453,1662.5,577.9453,1652.5,581.9453,1656.5,577.9453" style="stroke:#181818;stroke-width:1.0;"/><line style="stroke:#181818;stroke-width:1.0;" x1="914.5" x2="1658.5" y1="577.9453" y2="577.9453"/><text fill="#000000" font-family="sans-serif" font-size="13" font-weight="bold" lengthAdjust="spacing" textLength="18" x="921.5" y="572.8794">14</text><text fill="#000000" font-family="sans-serif" font-size="13" lengthAdjust="spacing" textLength="213" x="943.5" y="572.8794">hasPostsByMemberId(memberId)</text><polygon fill="#181818" points="925.5,603.0781,915.5,607.0781,925.5,611.0781,921.5,607.0781" style="stroke:#181818;stroke-width:1.0;"/><line style="stroke:#181818;stroke-width:1.0;stroke-dasharray:2.0,2.0;" x1="919.5" x2="1668.5" y1="607.0781" y2="607.0781"/><text fill="#000000" font-family="sans-serif" font-size="13" font-weight="bold" lengthAdjust="spacing" textLength="18" x="931.5" y="602.0122">15</text><text fill="#000000" font-family="sans-serif" font-size="13" lengthAdjust="spacing" textLength="31" x="953.5" y="602.0122">false</text><polygon fill="#181818" points="1219.5,632.2109,1229.5,636.2109,1219.5,640.2109,1223.5,636.2109" style="stroke:#181818;stroke-width:1.0;"/><line style="stroke:#181818;stroke-width:1.0;" x1="914.5" x2="1225.5" y1="636.2109" y2="636.2109"/><text fill="#000000" font-family="sans-serif" font-size="13" font-weight="bold" lengthAdjust="spacing" textLength="18" x="921.5" y="631.145">16</text><text fill="#000000" font-family="sans-serif" font-size="13" lengthAdjust="spacing" textLength="50" x="943.5" y="631.145">delete()</text><polygon fill="#181818" points="1089.5,691.3438,1099.5,695.3438,1089.5,699.3438,1093.5,695.3438" style="stroke:#181818;stroke-width:1.0;"/><line style="stroke:#181818;stroke-width:1.0;" x1="914.5" x2="1095.5" y1="695.3438" y2="695.3438"/><text fill="#000000" font-family="sans-serif" font-size="13" font-weight="bold" lengthAdjust="spacing" textLength="18" x="921.5" y="690.2778">17</text><text fill="#000000" font-family="sans-serif" font-size="13" lengthAdjust="spacing" textLength="69" x="943.5" y="690.2778">save(user)</text><polygon fill="#181818" points="487.5,720.4766,477.5,724.4766,487.5,728.4766,483.5,724.4766" style="stroke:#181818;stroke-width:1.0;"/><line style="stroke:#181818;stroke-width:1.0;stroke-dasharray:2.0,2.0;" x1="481.5" x2="908.5" y1="724.4766" y2="724.4766"/><text fill="#000000" font-family="sans-serif" font-size="13" font-weight="bold" lengthAdjust="spacing" textLength="18" x="493.5" y="719.4106">18</text><text fill="#000000" font-family="sans-serif" font-size="13" lengthAdjust="spacing" textLength="198" x="515.5" y="719.4106">return right(Result.ok&lt;void&gt;())</text><line style="stroke:#181818;stroke-width:1.0;stroke-dasharray:2.0,2.0;" x1="476.5" x2="518.5" y1="758.6094" y2="758.6094"/><line style="stroke:#181818;stroke-width:1.0;stroke-dasharray:2.0,2.0;" x1="518.5" x2="518.5" y1="758.6094" y2="771.6094"/><line style="stroke:#181818;stroke-width:1.0;stroke-dasharray:2.0,2.0;" x1="471.5" x2="518.5" y1="771.6094" y2="771.6094"/><polygon fill="#181818" points="481.5,767.6094,471.5,771.6094,481.5,775.6094,477.5,771.6094" style="stroke:#181818;stroke-width:1.0;"/><text fill="#000000" font-family="sans-serif" font-size="13" font-weight="bold" lengthAdjust="spacing" textLength="18" x="483.5" y="753.5435">19</text><text fill="#000000" font-family="sans-serif" font-size="13" lengthAdjust="spacing" textLength="4" x="505.5" y="753.5435">&#160;</text><polygon fill="#181818" points="236,791.7422,226,795.7422,236,799.7422,232,795.7422" style="stroke:#181818;stroke-width:1.0;"/><line style="stroke:#181818;stroke-width:1.0;stroke-dasharray:2.0,2.0;" x1="230" x2="465.5" y1="795.7422" y2="795.7422"/><text fill="#000000" font-family="sans-serif" font-size="13" font-weight="bold" lengthAdjust="spacing" textLength="19" x="242" y="790.6763">20</text><text fill="#000000" font-family="sans-serif" font-size="13" lengthAdjust="spacing" textLength="36" x="265" y="790.6763">result</text><polygon fill="#181818" points="49,820.875,39,824.875,49,828.875,45,824.875" style="stroke:#181818;stroke-width:1.0;"/><line style="stroke:#181818;stroke-width:1.0;stroke-dasharray:2.0,2.0;" x1="43" x2="219" y1="824.875" y2="824.875"/><text fill="#000000" font-family="sans-serif" font-size="13" font-weight="bold" lengthAdjust="spacing" textLength="18" x="55" y="819.8091">21</text><text fill="#000000" font-family="sans-serif" font-size="13" lengthAdjust="spacing" textLength="97" x="77" y="819.8091">STATUS 200 ok</text><!--SRC=[bLHDZvim4BtpAqRf1QIccxOtL4LgbXmYxKfLI7w05sO92c3MDjdctzSs60QMDEqbEEFttepdIvxpgcQ2bL3oYYSdmKi49HhqP7zJi-JCCepLjK0Gc2XMPGK5o1DB-NjUPV3A2eaUQnIlcl85XUUfN6bMZ6yDLWb2bBFCKFmu2c09ntZrzRl-HbYWGcYaeR14SG6BPpGA2s0IsgEdlQayoMjMALZKNAezRnIAiFrOvA_UEaQdri5Hwp_oIWbU59eNpHYjojp5H4znGZTU8yKjLz-CeVfHZqmYWLjSP_w05NkiURWxTYU7jNy-WaEgDucnj5dhHOQ_Sx2GfBkybMuJsR6-S8NcnHRhxBPi-ONfAdRLyjelBDUaAY54swVjOGiFXYWVGXFsBXt8f83US3OYSqK90NzZeX6-mBVFkZbbC4ZDLj6RizvJtvNrlpg0JqzvTbARGe-GbmWqEDCIirZjrpGILFZk1zvDZEkW_h6QHC9mdUHr1rWwtGmLJ1DiWl7qpqWuoo_ea2cEiRtgkk_3K0kRC3VNe-NuBJMWN1SLDRJTvz9YEzPPE_MmIqLlfb5QmjX5g_YNLAn9tvkmswQy4_X4bKoEYxqRaU5cyEIUGE_eArhxBeLNlMoT4F5FlP5dz0DuOj8CXjnSdpibtqcIfXZcqft6KRIRchWT29E2Xz0kJp-0SJ6dIPjl5SakQDCSpBL2nrZUd421gX4L23DK_XvbKwWl_FpZmlDqxGVpXPlfmXkpTSCjLVYFBJBPTC96Ur-BhZajqLOrXFZmyt2CuTjg1VmCL8RiI69jUNy0]--></g></svg>