<?xml version="1.0" encoding="us-ascii" standalone="no"?><svg xmlns="http://www.w3.org/2000/svg" xmlns:xlink="http://www.w3.org/1999/xlink" contentStyleType="text/css" height="779px" preserveAspectRatio="none" style="width:1524px;height:779px;background:#FFFFFF;" version="1.1" viewBox="0 0 1524 779" width="1524px" zoomAndPan="magnify"><defs/><g><text fill="#000000" font-family="sans-serif" font-size="14" font-weight="bold" lengthAdjust="spacing" textLength="423" x="549.5" y="27.9951">Sequence Diagram - Visitor Sort Posts by Unpopular</text><rect fill="#FFFFFF" height="561.2578" style="stroke:#181818;stroke-width:1.0;" width="10" x="33" y="128.5938"/><rect fill="#FFFFFF" height="531.125" style="stroke:#181818;stroke-width:1.0;" width="10" x="253" y="149.7266"/><rect fill="#FFFFFF" height="472.8594" style="stroke:#181818;stroke-width:1.0;" width="10" x="545" y="178.8594"/><rect fill="#FFFFFF" height="399.5938" style="stroke:#181818;stroke-width:1.0;" width="10" x="550" y="215.9922"/><rect fill="#FFFFFF" height="330.3281" style="stroke:#181818;stroke-width:1.0;" width="10" x="873" y="250.125"/><rect fill="#FFFFFF" height="272.0625" style="stroke:#181818;stroke-width:1.0;" width="10" x="1072" y="279.2578"/><rect fill="#FFFFFF" height="198.7969" style="stroke:#181818;stroke-width:1.0;" width="10" x="1077" y="316.3906"/><rect fill="#FFFFFF" height="87.3984" style="stroke:#181818;stroke-width:1.0;" width="10" x="1279" y="392.6563"/><rect fill="#FFFFFF" height="29.1328" style="stroke:#181818;stroke-width:1.0;" width="10" x="1465" y="421.7891"/><line style="stroke:#181818;stroke-width:0.5;stroke-dasharray:5.0,5.0;" x1="38" x2="38" y1="118.5938" y2="698.8516"/><line style="stroke:#181818;stroke-width:0.5;stroke-dasharray:5.0,5.0;" x1="257.5" x2="257.5" y1="118.5938" y2="698.8516"/><line style="stroke:#181818;stroke-width:0.5;stroke-dasharray:5.0,5.0;" x1="549.5" x2="549.5" y1="118.5938" y2="698.8516"/><line style="stroke:#181818;stroke-width:0.5;stroke-dasharray:5.0,5.0;" x1="877.5" x2="877.5" y1="118.5938" y2="698.8516"/><line style="stroke:#181818;stroke-width:0.5;stroke-dasharray:5.0,5.0;" x1="1077" x2="1077" y1="118.5938" y2="698.8516"/><line style="stroke:#181818;stroke-width:0.5;stroke-dasharray:5.0,5.0;" x1="1284" x2="1284" y1="118.5938" y2="698.8516"/><line style="stroke:#181818;stroke-width:0.5;stroke-dasharray:5.0,5.0;" x1="1470" x2="1470" y1="118.5938" y2="698.8516"/><text fill="#000000" font-family="sans-serif" font-size="14" lengthAdjust="spacing" textLength="60" x="5" y="115.292">Member</text><ellipse cx="38" cy="50.7969" fill="#E3E3E3" rx="8" ry="8" style="stroke:#181818;stroke-width:0.5;"/><path d="M38,58.7969 L38,85.7969 M25,66.7969 L51,66.7969 M38,85.7969 L25,100.7969 M38,85.7969 L51,100.7969 " fill="none" style="stroke:#181818;stroke-width:0.5;"/><text fill="#000000" font-family="sans-serif" font-size="14" lengthAdjust="spacing" textLength="60" x="5" y="710.8467">Member</text><ellipse cx="38" cy="722.6484" fill="#E3E3E3" rx="8" ry="8" style="stroke:#181818;stroke-width:0.5;"/><path d="M38,730.6484 L38,757.6484 M25,738.6484 L51,738.6484 M38,757.6484 L25,772.6484 M38,757.6484 L51,772.6484 " fill="none" style="stroke:#181818;stroke-width:0.5;"/><rect fill="#E3E3E3" height="30.2969" rx="2.5" ry="2.5" style="stroke:#181818;stroke-width:0.5;" width="137" x="189.5" y="87.2969"/><text fill="#000000" font-family="sans-serif" font-size="14" lengthAdjust="spacing" textLength="123" x="196.5" y="107.292">routes:unpopular</text><rect fill="#E3E3E3" height="30.2969" rx="2.5" ry="2.5" style="stroke:#181818;stroke-width:0.5;" width="137" x="189.5" y="697.8516"/><text fill="#000000" font-family="sans-serif" font-size="14" lengthAdjust="spacing" textLength="123" x="196.5" y="717.8467">routes:unpopular</text><rect fill="#E3E3E3" height="30.2969" rx="2.5" ry="2.5" style="stroke:#181818;stroke-width:0.5;" width="427" x="336.5" y="87.2969"/><text fill="#000000" font-family="sans-serif" font-size="14" lengthAdjust="spacing" textLength="413" x="343.5" y="107.292">getUnpopularPostController:GetUnpopularPostController</text><rect fill="#E3E3E3" height="30.2969" rx="2.5" ry="2.5" style="stroke:#181818;stroke-width:0.5;" width="427" x="336.5" y="697.8516"/><text fill="#000000" font-family="sans-serif" font-size="14" lengthAdjust="spacing" textLength="413" x="343.5" y="717.8467">getUnpopularPostController:GetUnpopularPostController</text><rect fill="#E3E3E3" height="30.2969" rx="2.5" ry="2.5" style="stroke:#181818;stroke-width:0.5;" width="209" x="773.5" y="87.2969"/><text fill="#000000" font-family="sans-serif" font-size="14" lengthAdjust="spacing" textLength="195" x="780.5" y="107.292">useCase:GetUnpopularPost</text><rect fill="#E3E3E3" height="30.2969" rx="2.5" ry="2.5" style="stroke:#181818;stroke-width:0.5;" width="209" x="773.5" y="697.8516"/><text fill="#000000" font-family="sans-serif" font-size="14" lengthAdjust="spacing" textLength="195" x="780.5" y="717.8467">useCase:GetUnpopularPost</text><rect fill="#E3E3E3" height="30.2969" rx="2.5" ry="2.5" style="stroke:#181818;stroke-width:0.5;" width="164" x="995" y="87.2969"/><text fill="#000000" font-family="sans-serif" font-size="14" lengthAdjust="spacing" textLength="150" x="1002" y="107.292">postRepo:IPostRepo</text><rect fill="#E3E3E3" height="30.2969" rx="2.5" ry="2.5" style="stroke:#181818;stroke-width:0.5;" width="164" x="995" y="697.8516"/><text fill="#000000" font-family="sans-serif" font-size="14" lengthAdjust="spacing" textLength="150" x="1002" y="717.8467">postRepo:IPostRepo</text><rect fill="#E3E3E3" height="30.2969" rx="2.5" ry="2.5" style="stroke:#181818;stroke-width:0.5;" width="126" x="1221" y="87.2969"/><text fill="#000000" font-family="sans-serif" font-size="14" lengthAdjust="spacing" textLength="112" x="1228" y="107.292">PostDetailsMap</text><rect fill="#E3E3E3" height="30.2969" rx="2.5" ry="2.5" style="stroke:#181818;stroke-width:0.5;" width="126" x="1221" y="697.8516"/><text fill="#000000" font-family="sans-serif" font-size="14" lengthAdjust="spacing" textLength="112" x="1228" y="717.8467">PostDetailsMap</text><rect fill="#E3E3E3" height="30.2969" rx="2.5" ry="2.5" style="stroke:#181818;stroke-width:0.5;" width="96" x="1422" y="87.2969"/><text fill="#000000" font-family="sans-serif" font-size="14" lengthAdjust="spacing" textLength="82" x="1429" y="107.292">PostDetails</text><rect fill="#E3E3E3" height="30.2969" rx="2.5" ry="2.5" style="stroke:#181818;stroke-width:0.5;" width="96" x="1422" y="697.8516"/><text fill="#000000" font-family="sans-serif" font-size="14" lengthAdjust="spacing" textLength="82" x="1429" y="717.8467">PostDetails</text><rect fill="#FFFFFF" height="561.2578" style="stroke:#181818;stroke-width:1.0;" width="10" x="33" y="128.5938"/><rect fill="#FFFFFF" height="531.125" style="stroke:#181818;stroke-width:1.0;" width="10" x="253" y="149.7266"/><rect fill="#FFFFFF" height="472.8594" style="stroke:#181818;stroke-width:1.0;" width="10" x="545" y="178.8594"/><rect fill="#FFFFFF" height="399.5938" style="stroke:#181818;stroke-width:1.0;" width="10" x="550" y="215.9922"/><rect fill="#FFFFFF" height="330.3281" style="stroke:#181818;stroke-width:1.0;" width="10" x="873" y="250.125"/><rect fill="#FFFFFF" height="272.0625" style="stroke:#181818;stroke-width:1.0;" width="10" x="1072" y="279.2578"/><rect fill="#FFFFFF" height="198.7969" style="stroke:#181818;stroke-width:1.0;" width="10" x="1077" y="316.3906"/><rect fill="#FFFFFF" height="87.3984" style="stroke:#181818;stroke-width:1.0;" width="10" x="1279" y="392.6563"/><rect fill="#FFFFFF" height="29.1328" style="stroke:#181818;stroke-width:1.0;" width="10" x="1465" y="421.7891"/><polygon fill="#181818" points="241,145.7266,251,149.7266,241,153.7266,245,149.7266" style="stroke:#181818;stroke-width:1.0;"/><line style="stroke:#181818;stroke-width:1.0;" x1="43" x2="247" y1="149.7266" y2="149.7266"/><text fill="#000000" font-family="sans-serif" font-size="13" font-weight="bold" lengthAdjust="spacing" textLength="9" x="50" y="144.6606">1</text><text fill="#000000" font-family="sans-serif" font-size="13" lengthAdjust="spacing" textLength="137" x="63" y="144.6606">GET /posts/unpopular</text><polygon fill="#181818" points="533,174.8594,543,178.8594,533,182.8594,537,178.8594" style="stroke:#181818;stroke-width:1.0;"/><line style="stroke:#181818;stroke-width:1.0;" x1="263" x2="539" y1="178.8594" y2="178.8594"/><text fill="#000000" font-family="sans-serif" font-size="13" font-weight="bold" lengthAdjust="spacing" textLength="9" x="270" y="173.7935">2</text><text fill="#000000" font-family="sans-serif" font-size="13" lengthAdjust="spacing" textLength="116" x="283" y="173.7935">execute(req, res);</text><line style="stroke:#181818;stroke-width:1.0;" x1="555" x2="602" y1="202.9922" y2="202.9922"/><line style="stroke:#181818;stroke-width:1.0;" x1="602" x2="602" y1="202.9922" y2="215.9922"/><line style="stroke:#181818;stroke-width:1.0;" x1="561" x2="602" y1="215.9922" y2="215.9922"/><polygon fill="#181818" points="571,211.9922,561,215.9922,571,219.9922,567,215.9922" style="stroke:#181818;stroke-width:1.0;"/><text fill="#000000" font-family="sans-serif" font-size="13" font-weight="bold" lengthAdjust="spacing" textLength="8" x="567" y="197.9263">3</text><text fill="#000000" font-family="sans-serif" font-size="13" lengthAdjust="spacing" textLength="135" x="579" y="197.9263">executeImp(req, res)</text><polygon fill="#181818" points="861,246.125,871,250.125,861,254.125,865,250.125" style="stroke:#181818;stroke-width:1.0;"/><line style="stroke:#181818;stroke-width:1.0;" x1="560" x2="867" y1="250.125" y2="250.125"/><text fill="#000000" font-family="sans-serif" font-size="13" font-weight="bold" lengthAdjust="spacing" textLength="9" x="567" y="245.0591">4</text><text fill="#000000" font-family="sans-serif" font-size="13" lengthAdjust="spacing" textLength="83" x="580" y="245.0591">execute(dto)</text><polygon fill="#181818" points="1060,275.2578,1070,279.2578,1060,283.2578,1064,279.2578" style="stroke:#181818;stroke-width:1.0;"/><line style="stroke:#181818;stroke-width:1.0;" x1="883" x2="1066" y1="279.2578" y2="279.2578"/><text fill="#000000" font-family="sans-serif" font-size="13" font-weight="bold" lengthAdjust="spacing" textLength="9" x="890" y="274.1919">5</text><text fill="#000000" font-family="sans-serif" font-size="13" lengthAdjust="spacing" textLength="157" x="903" y="274.1919">getUnpopularPosts(dto);</text><line style="stroke:#181818;stroke-width:1.0;" x1="1082" x2="1129" y1="303.3906" y2="303.3906"/><line style="stroke:#181818;stroke-width:1.0;" x1="1129" x2="1129" y1="303.3906" y2="316.3906"/><line style="stroke:#181818;stroke-width:1.0;" x1="1088" x2="1129" y1="316.3906" y2="316.3906"/><polygon fill="#181818" points="1098,312.3906,1088,316.3906,1098,320.3906,1094,316.3906" style="stroke:#181818;stroke-width:1.0;"/><text fill="#000000" font-family="sans-serif" font-size="13" font-weight="bold" lengthAdjust="spacing" textLength="9" x="1094" y="298.3247">6</text><text fill="#000000" font-family="sans-serif" font-size="13" lengthAdjust="spacing" textLength="170" x="1107" y="298.3247">createBaseDetailsQuery();</text><line style="stroke:#181818;stroke-width:1.0;" x1="1087" x2="1129" y1="350.5234" y2="350.5234"/><line style="stroke:#181818;stroke-width:1.0;" x1="1129" x2="1129" y1="350.5234" y2="363.5234"/><line style="stroke:#181818;stroke-width:1.0;" x1="1088" x2="1129" y1="363.5234" y2="363.5234"/><polygon fill="#181818" points="1098,359.5234,1088,363.5234,1098,367.5234,1094,363.5234" style="stroke:#181818;stroke-width:1.0;"/><text fill="#000000" font-family="sans-serif" font-size="13" font-weight="bold" lengthAdjust="spacing" textLength="9" x="1094" y="345.4575">7</text><text fill="#000000" font-family="sans-serif" font-size="13" lengthAdjust="spacing" textLength="118" x="1107" y="345.4575">PostModel.findAll()</text><polygon fill="#181818" points="1267,388.6563,1277,392.6563,1267,396.6563,1271,392.6563" style="stroke:#181818;stroke-width:1.0;"/><line style="stroke:#181818;stroke-width:1.0;" x1="1087" x2="1273" y1="392.6563" y2="392.6563"/><text fill="#000000" font-family="sans-serif" font-size="13" font-weight="bold" lengthAdjust="spacing" textLength="9" x="1094" y="387.5903">8</text><text fill="#000000" font-family="sans-serif" font-size="13" lengthAdjust="spacing" textLength="118" x="1107" y="387.5903">posts.map(posts);</text><polygon fill="#181818" points="1453,417.7891,1463,421.7891,1453,425.7891,1457,421.7891" style="stroke:#181818;stroke-width:1.0;"/><line style="stroke:#181818;stroke-width:1.0;" x1="1289" x2="1459" y1="421.7891" y2="421.7891"/><text fill="#000000" font-family="sans-serif" font-size="13" font-weight="bold" lengthAdjust="spacing" textLength="9" x="1296" y="416.7231">9</text><text fill="#000000" font-family="sans-serif" font-size="13" lengthAdjust="spacing" textLength="92" x="1309" y="416.7231">create(props);</text><polygon fill="#181818" points="1300,446.9219,1290,450.9219,1300,454.9219,1296,450.9219" style="stroke:#181818;stroke-width:1.0;"/><line style="stroke:#181818;stroke-width:1.0;stroke-dasharray:2.0,2.0;" x1="1294" x2="1469" y1="450.9219" y2="450.9219"/><text fill="#000000" font-family="sans-serif" font-size="13" font-weight="bold" lengthAdjust="spacing" textLength="19" x="1306" y="445.856">10</text><text fill="#000000" font-family="sans-serif" font-size="13" lengthAdjust="spacing" textLength="129" x="1329" y="445.856">ok(newPostDetails);</text><polygon fill="#181818" points="1098,476.0547,1088,480.0547,1098,484.0547,1094,480.0547" style="stroke:#181818;stroke-width:1.0;"/><line style="stroke:#181818;stroke-width:1.0;stroke-dasharray:2.0,2.0;" x1="1092" x2="1283" y1="480.0547" y2="480.0547"/><text fill="#000000" font-family="sans-serif" font-size="13" font-weight="bold" lengthAdjust="spacing" textLength="18" x="1104" y="474.9888">11</text><text fill="#000000" font-family="sans-serif" font-size="13" lengthAdjust="spacing" textLength="112" x="1126" y="474.9888">toDTO(PostDTO);</text><line style="stroke:#181818;stroke-width:1.0;stroke-dasharray:2.0,2.0;" x1="1087" x2="1129" y1="514.1875" y2="514.1875"/><line style="stroke:#181818;stroke-width:1.0;stroke-dasharray:2.0,2.0;" x1="1129" x2="1129" y1="514.1875" y2="527.1875"/><line style="stroke:#181818;stroke-width:1.0;stroke-dasharray:2.0,2.0;" x1="1082" x2="1129" y1="527.1875" y2="527.1875"/><polygon fill="#181818" points="1092,523.1875,1082,527.1875,1092,531.1875,1088,527.1875" style="stroke:#181818;stroke-width:1.0;"/><text fill="#000000" font-family="sans-serif" font-size="13" font-weight="bold" lengthAdjust="spacing" textLength="18" x="1094" y="509.1216">12</text><text fill="#000000" font-family="sans-serif" font-size="13" lengthAdjust="spacing" textLength="87" x="1116" y="509.1216">PostDetails[];</text><polygon fill="#181818" points="894,547.3203,884,551.3203,894,555.3203,890,551.3203" style="stroke:#181818;stroke-width:1.0;"/><line style="stroke:#181818;stroke-width:1.0;stroke-dasharray:2.0,2.0;" x1="888" x2="1076" y1="551.3203" y2="551.3203"/><text fill="#000000" font-family="sans-serif" font-size="13" font-weight="bold" lengthAdjust="spacing" textLength="17" x="900" y="546.2544">13</text><text fill="#000000" font-family="sans-serif" font-size="13" lengthAdjust="spacing" textLength="87" x="921" y="546.2544">PostDetails[];</text><polygon fill="#181818" points="571,576.4531,561,580.4531,571,584.4531,567,580.4531" style="stroke:#181818;stroke-width:1.0;"/><line style="stroke:#181818;stroke-width:1.0;stroke-dasharray:2.0,2.0;" x1="565" x2="877" y1="580.4531" y2="580.4531"/><text fill="#000000" font-family="sans-serif" font-size="13" font-weight="bold" lengthAdjust="spacing" textLength="18" x="577" y="575.3872">14</text><text fill="#000000" font-family="sans-serif" font-size="13" lengthAdjust="spacing" textLength="65" x="599" y="575.3872">ok(posts);</text><line style="stroke:#181818;stroke-width:1.0;stroke-dasharray:2.0,2.0;" x1="560" x2="602" y1="614.5859" y2="614.5859"/><line style="stroke:#181818;stroke-width:1.0;stroke-dasharray:2.0,2.0;" x1="602" x2="602" y1="614.5859" y2="627.5859"/><line style="stroke:#181818;stroke-width:1.0;stroke-dasharray:2.0,2.0;" x1="555" x2="602" y1="627.5859" y2="627.5859"/><polygon fill="#181818" points="565,623.5859,555,627.5859,565,631.5859,561,627.5859" style="stroke:#181818;stroke-width:1.0;"/><text fill="#000000" font-family="sans-serif" font-size="13" font-weight="bold" lengthAdjust="spacing" textLength="18" x="567" y="609.52">15</text><text fill="#000000" font-family="sans-serif" font-size="13" lengthAdjust="spacing" textLength="65" x="589" y="609.52">ok(posts);</text><polygon fill="#181818" points="274,647.7188,264,651.7188,274,655.7188,270,651.7188" style="stroke:#181818;stroke-width:1.0;"/><line style="stroke:#181818;stroke-width:1.0;stroke-dasharray:2.0,2.0;" x1="268" x2="549" y1="651.7188" y2="651.7188"/><text fill="#000000" font-family="sans-serif" font-size="13" font-weight="bold" lengthAdjust="spacing" textLength="18" x="280" y="646.6528">16</text><text fill="#000000" font-family="sans-serif" font-size="13" lengthAdjust="spacing" textLength="115" x="302" y="646.6528">UnpopularPosts[];</text><polygon fill="#181818" points="54,676.8516,44,680.8516,54,684.8516,50,680.8516" style="stroke:#181818;stroke-width:1.0;"/><line style="stroke:#181818;stroke-width:1.0;stroke-dasharray:2.0,2.0;" x1="48" x2="257" y1="680.8516" y2="680.8516"/><text fill="#000000" font-family="sans-serif" font-size="13" font-weight="bold" lengthAdjust="spacing" textLength="18" x="60" y="675.7856">17</text><text fill="#000000" font-family="sans-serif" font-size="13" lengthAdjust="spacing" textLength="164" x="82" y="675.7856">[200 OK] Unpopular Posts</text><!--SRC=[hLLDJzmm4BtdLupsb4fTG3scKgMMhH2gLWlijXV4mIH3iDQnZJ-0_VVOJfoDqsQNLZtPyhptPl9cxEWjvP8eqa0Zk2WVbMWGZBAOwJuYIRabDQxDZY4eB0tXDHi2z2Efn0lbDJmGfZ4ZrWXkctjKMMQeSQmrFbda9SA2ajfJvl2BQcg4WhLG1gw4DXhkT_2JIo4j8uv9IX-UBT4BpO1eQBUPIsfeIINX1cPAM8Ewi94NW3VXC0NMQ7fnd-vSSAC4OwYAYybGK9iEfncindEYyJUv8D85KuPqqHkKehYywdO16uzJi8Siq13Az9B804oF9k5ZRF2MFXE3qT9sWVcNphe2BhvluDGNeazjqfEMrpdSBfutRL81-8gbm-KAdpww0T8VFW-K3hWx7Nfdnij6xfF-ZvonnVqdLKOCXMENkzLJ-Xx3U09rO0-zs3U-swG2fKA7-kQ4kqPUMrIx_2yaVDgbg92TF51UVMKiTzKFaUb45O6fJneYyx1pgVfCAHIoR7IGgiNgSwc4dD99D63-Xth4DkVuCZXrIXKUrGhr95uQiTYiyW3Ph2P5_AqQ-3EsiaFTtYNylWKfiv-Tzp3x0JeowCwFs9Y1JXp3WzFyJye7RiwnPF5bIU_0o853-l6nSLhjUrN0xQUpCrZzkDkBjh-IeMHBUmC0]--></g></svg>